HIERARCHY
ROOT root
{
	OFFSET 0.000000 0.000000 0.000000
	CHANNELS 6 Xposition Yposition Zposition Zrotation Yrotation Xrotation
	JOINT lhip
	{
		OFFSET 0.058581 -0.082280 -0.017664
		CHANNELS 3 Zrotation Yrotation Xrotation
		JOINT lknee
		{
			OFFSET 0.043451 -0.386469 0.008037
			CHANNELS 3 Zrotation Yrotation Xrotation
			JOINT lankle
			{
				OFFSET -0.014790 -0.426874 -0.037428
				CHANNELS 3 Zrotation Yrotation Xrotation
				JOINT ltoe
				{
					OFFSET 0.041054 -0.060286 0.122042
					CHANNELS 3 Zrotation Yrotation Xrotation
					End Site
					{
						OFFSET 0.000000 0.000000 0.000000
					}
				}
			}
		}
	}
	JOINT rhip
	{
		OFFSET -0.060310 -0.090513 -0.013543
		CHANNELS 3 Zrotation Yrotation Xrotation
		JOINT rknee
		{
			OFFSET -0.043257 -0.383688 -0.004843
			CHANNELS 3 Zrotation Yrotation Xrotation
			JOINT rankle
			{
				OFFSET 0.019056 -0.420046 -0.034562
				CHANNELS 3 Zrotation Yrotation Xrotation
				JOINT rtoe
				{
					OFFSET -0.034840 -0.062106 0.130323
					CHANNELS 3 Zrotation Yrotation Xrotation
					End Site
					{
						OFFSET 0.000000 0.000000 0.000000
					}
				}
			}
		}
	}
	JOINT lowerback
	{
		OFFSET 0.004439 0.124404 -0.038385
		CHANNELS 3 Zrotation Yrotation Xrotation
		JOINT upperback
		{
			OFFSET 0.004488 0.137956 0.026820
			CHANNELS 3 Zrotation Yrotation Xrotation
			JOINT chest
			{
				OFFSET -0.002265 0.056032 0.002855
				CHANNELS 3 Zrotation Yrotation Xrotation
				JOINT lowerneck
				{
					OFFSET -0.013390 0.211636 -0.033468
					CHANNELS 3 Zrotation Yrotation Xrotation
					JOINT upperneck
					{
						OFFSET 0.010113 0.088937 0.050410
						CHANNELS 3 Zrotation Yrotation Xrotation
						End Site
						{
							OFFSET 0.000000 0.000000 0.000000
						}
					}
				}
				JOINT lclavicle
				{
					OFFSET 0.071702 0.114000 -0.018898
					CHANNELS 3 Zrotation Yrotation Xrotation
					JOINT lshoulder
					{
						OFFSET 0.122921 0.045205 -0.019046
						CHANNELS 3 Zrotation Yrotation Xrotation
						JOINT lelbow
						{
							OFFSET 0.255332 -0.015649 -0.022946
							CHANNELS 3 Zrotation Yrotation Xrotation
							JOINT lwrist
							{
								OFFSET 0.265709 0.012698 -0.007375
								CHANNELS 3 Zrotation Yrotation Xrotation
								End Site
								{
									OFFSET 0.000000 0.000000 0.000000
								}
							}
						}
					}
				}
				JOINT rclavicle
				{
					OFFSET -0.082954 0.112472 -0.023707
					CHANNELS 3 Zrotation Yrotation Xrotation
					JOINT rshoulder
					{
						OFFSET -0.113228 0.046853 -0.008472
						CHANNELS 3 Zrotation Yrotation Xrotation
						JOINT relbow
						{
							OFFSET -0.260127 -0.014369 -0.031269
							CHANNELS 3 Zrotation Yrotation Xrotation
							JOINT rwrist
							{
								OFFSET -0.269108 0.006794 -0.006027
								CHANNELS 3 Zrotation Yrotation Xrotation
								End Site
								{
									OFFSET 0.000000 0.000000 0.000000
								}
							}
						}
					}
				}
			}
		}
	}
}
MOTION
Frames: 7
Frame Time: 0.033333
-0.862567 0.304391 0.996497 93.726529 -1.692563 87.501396 -5.312638 -1.082208 -0.430182 -2.440263 -11.648952 11.528745 9.817386 18.152262 -20.412416 0.000000 -0.000000 0.000000 -3.667326 -2.085882 -22.025046 0.262872 -5.684062 60.449941 1.117420 -15.525888 -18.514020 0.000000 -0.000000 0.000000 -0.476041 -1.087196 18.225969 0.014983 -0.525264 -4.556960 -0.668712 -1.819927 2.261827 2.015066 -1.499857 -5.104964 1.025076 -6.840026 8.490756 -24.848566 1.297120 0.265998 -55.936829 -0.728034 8.718909 4.004226 -23.136007 11.406514 2.643642 2.319026 2.561422 24.798889 2.091603 -1.033151 59.087983 -2.965605 16.979021 -6.047361 26.721079 8.362790 -16.697495 -0.707752 8.832886 
-0.808798 0.307598 0.995164 94.564864 -0.788375 86.457006 -4.034593 0.958932 5.921190 -2.008592 -14.379508 7.968624 8.916848 18.640703 -21.459161 0.000000 -0.000000 0.000000 -3.794268 -1.402667 -26.506256 -0.270938 -8.060147 52.809809 2.236969 -16.191933 -19.577444 0.000000 -0.000000 0.000000 0.094796 -3.542373 18.952907 -0.049207 -0.377898 -5.005010 -0.308544 -2.360991 2.333775 1.527446 -1.166288 -4.165209 1.413074 -5.970728 8.112299 -24.773426 0.380594 -0.063351 -54.720627 -4.447215 9.292599 4.214858 -25.395020 9.935118 3.052438 1.929276 1.315108 24.513474 1.390780 -0.721151 58.610260 -5.228409 17.015394 -5.508460 25.417058 9.222833 -15.901516 -1.006444 8.750083 
-0.755492 0.310048 0.989763 95.533826 -0.070978 86.270577 -2.454066 2.277182 10.929252 -1.748923 -16.360164 5.251489 8.021309 18.473878 -22.585449 0.000000 -0.000000 0.000000 -4.243670 -1.015866 -30.001290 -0.473443 -10.340787 41.840991 3.873952 -15.960343 -16.431167 0.000000 -0.000000 0.000000 0.486069 -5.550734 18.842647 -0.007461 -0.535362 -5.211789 0.163655 -2.945675 2.117351 0.837467 -1.239537 -3.184444 2.054564 -4.896236 7.367898 -24.643414 -0.366632 -0.024352 -53.597365 -8.683381 9.160788 5.362981 -27.569975 7.146685 3.117217 1.507304 -0.212503 24.107261 0.451927 -0.233258 58.245482 -7.130296 17.146162 -5.512411 23.863584 9.778245 -15.105346 -1.433809 8.980290 
-0.702819 0.311794 0.981582 96.798529 0.186543 86.853579 -0.968233 3.444911 14.297190 -1.794848 -17.889356 4.092643 7.344966 17.503282 -23.893434 0.000000 -0.000000 0.000000 -4.522675 -1.500865 -32.262597 0.474516 -9.999761 28.563114 5.876030 -15.063234 -11.824587 0.000000 -0.000000 0.000000 0.453579 -6.809815 17.921855 0.272185 -1.332399 -5.036182 0.746368 -3.607823 1.760629 -0.050998 -1.665787 -2.593771 2.987103 -3.624932 6.567632 -24.475538 -1.331038 0.057620 -52.323028 -12.723900 8.569446 6.971923 -29.964769 3.488502 3.916416 1.259918 -1.416216 23.644910 -0.400769 0.196340 58.090914 -8.888154 17.072042 -6.145172 22.310221 8.935640 -14.692731 -2.180425 9.796546 
-0.648885 0.311677 0.972653 98.818355 0.803685 87.299460 1.779571 5.163626 16.739353 -2.417108 -19.599962 5.178183 5.363778 15.133523 -26.005555 0.000000 -0.000000 0.000000 -3.920204 -2.216351 -32.696853 0.296360 -8.295251 16.976848 8.010803 -13.208749 -12.393850 0.000000 -0.000000 0.000000 0.677886 -7.849819 17.316952 0.817623 -2.660075 -4.790675 1.375113 -4.361327 1.336696 -0.605235 -1.433743 -2.253797 3.741461 -3.139819 5.705042 -23.896978 -2.640522 0.118894 -51.187795 -15.925761 7.506630 8.804251 -32.588450 0.719199 5.363625 0.339367 -2.826564 23.045677 -0.906942 0.539637 58.300170 -10.498004 15.759994 -6.761000 20.547195 7.916165 -15.275445 -2.908861 10.438369 
-0.592490 0.311026 0.965531 101.474242 1.674231 87.469940 4.880345 6.127169 18.623983 -3.041520 -21.444179 8.009367 2.949508 13.246555 -27.146874 0.000000 -0.000000 0.000000 -3.708838 -2.599471 -32.195590 0.210143 -7.506872 12.460630 8.927764 -11.188515 -13.966847 0.000000 -0.000000 0.000000 1.123107 -8.964994 17.036906 1.589432 -3.900737 -4.318500 1.907283 -5.081089 0.887708 -0.851322 -1.064765 -2.408133 4.161822 -3.289574 4.886794 -23.225010 -4.065599 0.038626 -50.238846 -18.293040 6.556545 10.846840 -35.589771 -1.000497 6.472837 -0.377996 -4.008185 22.654301 -1.287786 0.552247 58.378325 -12.047625 13.854998 -7.246168 18.956219 7.000001 -15.844724 -3.424204 10.233976 
-0.532275 0.309604 0.963564 103.128857 2.460708 87.852901 6.934210 5.479173 20.310042 -3.396542 -22.488133 11.044891 0.381271 13.116521 -25.271800 0.000000 -0.000000 0.000000 -3.870572 -1.329902 -31.926416 1.440425 -7.963669 16.991668 8.534916 -10.100310 -15.564561 0.000000 -0.000000 0.000000 1.350244 -9.970640 15.924391 2.551398 -4.082362 -3.018478 2.122266 -5.306915 0.122483 -0.706397 -0.620906 -2.600625 3.939308 -3.850287 4.376945 -23.107545 -4.894418 -0.150462 -49.405574 -19.594231 6.777945 13.230387 -38.729421 -2.418529 7.372812 -0.977338 -4.497105 23.096800 -1.672016 0.654035 57.793531 -13.212987 12.643923 -7.589823 17.482373 6.548430 -16.379624 -3.685232 9.446481 
